<svg width="64" height="64" viewBox="0 0 64 64" fill="none" xmlns="http://www.w3.org/2000/svg">
<circle cx="32" cy="32" r="32" fill="#EAF1F8"/>
<path d="M32.0001 14C22.1707 14 14 22.153 14 32C14 41.8294 22.1883 50 32.0177 50C41.8648 50 50 41.8294 50 32C50 22.153 41.8471 14 32.0001 14ZM32.0177 29.353C32.953 29.353 33.4648 29.9 33.5001 30.8353L33.7471 39.5529C33.7824 40.5235 33.0412 41.2118 32.0354 41.2118C31.0472 41.2118 30.2883 40.5059 30.3236 39.5353L30.5707 30.8353C30.606 29.8824 31.1354 29.353 32.0177 29.353ZM32.0177 22.8589C33.0412 22.8589 33.9942 23.6706 33.9942 24.7647C33.9942 25.8588 33.0589 26.6706 32.0177 26.6706C30.9942 26.6706 30.0413 25.8765 30.0413 24.7647C30.0413 23.653 31.0118 22.8589 32.0177 22.8589Z" fill="#2F7ABF"/>
</svg>
