<svg width="185" height="197" viewBox="0 0 185 197" fill="none" xmlns="http://www.w3.org/2000/svg">
<path d="M93.6615 196.033C142.926 196.033 182.863 156.097 182.863 106.832C182.863 57.5674 142.926 17.6306 93.6615 17.6306C44.3969 17.6306 4.46008 57.5674 4.46008 106.832C4.46008 156.097 44.3969 196.033 93.6615 196.033Z" fill="#F4F6F9"/>
<path d="M169.873 117.536C169.929 116.198 169.929 114.804 169.985 113.522C170.263 102.985 170.542 93.8978 170.654 88.713L170.598 88.6572C170.486 94.5668 170.208 105.438 169.873 117.536Z" fill="white"/>
<path d="M171.211 89.6609C171.044 95.1245 170.821 103.933 170.542 113.522C170.542 114.414 170.486 115.306 170.486 116.198C171.657 113.411 172.438 110.735 172.828 108.56C174.222 100.477 173.608 94.3997 171.211 89.6609Z" fill="white"/>
<path d="M142.555 55.374C140.158 58.9978 136.813 61.7853 133.412 62.8446C130.569 63.7366 127.391 64.4614 124.325 64.4614V71.3745L127.391 74.4408L143.837 67.5277V53.3669C143.503 54.0917 143.057 54.7607 142.555 55.374Z" fill="white"/>
<path d="M170.654 88.6016L170.709 88.6573C170.709 88.2671 170.709 87.8768 170.765 87.5423L170.709 87.4866C170.654 87.8211 170.654 88.2113 170.654 88.6016Z" fill="#0F265C"/>
<path d="M144.339 56.0429C144.339 56.0429 144.228 54.8722 144.06 53.0881C144.005 53.1996 143.949 53.3111 143.893 53.4226V67.5834L144.451 67.3604V56.0987C144.395 56.0429 144.339 56.0429 144.339 56.0429Z" fill="#0F265C"/>
<path d="M114.903 76.894C114.903 76.8382 114.959 76.8382 114.959 76.7825L115.182 76.6152C114.457 76.9497 113.732 77.34 113.063 77.7303C113.174 77.6745 113.342 77.6187 113.453 77.563C113.62 77.4515 114.122 77.2285 114.903 76.894Z" fill="#0F265C"/>
<path d="M171.211 89.6608C173.608 94.4554 174.166 100.477 172.828 108.56C172.438 110.79 171.657 113.411 170.486 116.198C170.486 116.7 170.486 117.146 170.431 117.648C171.936 114.358 172.884 111.181 173.33 108.616C174.835 99.8633 174.054 93.3962 171.211 88.4343C171.267 88.8246 171.267 89.2148 171.211 89.6608Z" fill="#0F265C"/>
<path d="M169.873 118.874C169.873 118.428 169.873 117.982 169.929 117.536C169.873 117.982 169.873 118.428 169.873 118.874Z" fill="#0F265C"/>
<path d="M124.38 71.3745V64.4614C124.213 64.4614 123.99 64.4614 123.823 64.4614V70.817L124.38 71.3745Z" fill="#0F265C"/>
<path d="M37.3532 153.997C34.5099 154.778 32.4472 155.503 30.5516 156.283C29.9384 156.562 29.2136 156.896 28.5446 157.287C28.4889 157.342 28.4331 157.342 28.3774 157.398C28.2101 157.51 27.9871 157.621 27.8756 157.733C27.7641 157.9 27.8198 158.011 27.8198 158.067C27.9313 158.346 28.4889 158.625 28.9349 158.736C29.1021 158.792 29.2694 158.792 29.4366 158.736C30.8861 158.513 32.4472 158.067 33.9524 157.621C35.4577 157.175 37.0745 156.729 38.524 156.506C38.6913 156.506 38.8028 156.562 38.8585 156.729C38.8585 156.896 38.8028 157.008 38.6355 157.064C37.186 157.287 35.625 157.733 34.1197 158.179C33.2277 158.457 32.2799 158.68 31.3879 158.903C31.5552 159.015 31.6667 159.071 31.7782 159.182C32.1127 159.405 32.3914 159.628 32.8374 159.684C33.4507 159.684 34.0639 159.572 34.6772 159.461C34.9002 159.405 35.179 159.349 35.402 159.349C35.848 159.294 36.3497 159.182 36.8515 159.071C37.9665 158.848 39.1373 158.569 40.2523 158.736C40.4195 158.736 41.2558 158.903 41.5346 159.349C41.5346 159.349 41.5346 159.405 41.5903 159.405C42.3151 158.959 42.8726 158.234 42.8168 157.342C42.8168 157.175 42.9283 157.064 43.0956 157.064C43.2628 157.064 43.3743 157.175 43.3743 157.342C43.4858 158.68 42.5938 159.628 41.4788 160.13C41.3116 160.297 40.977 160.409 40.6983 160.409C40.3638 160.52 40.0293 160.576 39.7505 160.576C39.6948 160.576 39.6948 160.576 39.6948 160.576C39.0258 160.743 38.1895 161.022 37.5205 161.468H54.19L52.852 150.875C47.3326 151.656 41.9806 152.659 37.3532 153.997Z" fill="white"/>
<path d="M37.5205 161.468C38.1895 161.022 39.0258 160.799 39.6948 160.576H39.7505C40.0293 160.52 40.3638 160.464 40.6983 160.409C40.9771 160.353 41.3116 160.297 41.4788 160.13C42.5938 159.572 43.4858 158.625 43.3743 157.342C43.3743 157.175 43.2071 157.064 43.0956 157.064C42.9283 157.064 42.8168 157.231 42.8168 157.342C42.9283 158.234 42.3708 158.959 41.5903 159.405C41.5903 159.405 41.5903 159.349 41.5346 159.349C41.2558 158.903 40.4195 158.792 40.2523 158.736C39.1373 158.625 37.9665 158.848 36.8515 159.071C36.3497 159.182 35.9037 159.294 35.402 159.349C35.179 159.405 34.9002 159.405 34.6772 159.461C34.0639 159.572 33.4507 159.684 32.8374 159.684C32.3914 159.684 32.1127 159.461 31.7782 159.182C31.6667 159.071 31.4994 159.015 31.3879 158.903C32.2799 158.68 33.2277 158.402 34.1197 158.179C35.625 157.733 37.186 157.287 38.6355 157.064C38.8028 157.064 38.9143 156.896 38.8585 156.729C38.8585 156.562 38.6913 156.45 38.524 156.506C37.0187 156.729 35.4577 157.175 33.9524 157.621C32.4472 158.067 30.8861 158.513 29.4366 158.736C29.2694 158.736 29.1021 158.736 28.9349 158.736C28.4889 158.625 27.9871 158.346 27.8198 158.067C27.7641 158.011 27.7641 157.9 27.8756 157.733C27.9313 157.621 28.2101 157.454 28.3774 157.398C28.4331 157.342 28.4889 157.342 28.5446 157.287C29.2136 156.896 29.9384 156.562 30.5516 156.283C32.4472 155.447 34.51 154.778 37.3532 153.997C41.9806 152.715 47.3326 151.656 52.852 150.931L52.7962 150.374C47.2769 151.098 41.9248 152.158 37.2417 153.44C34.3985 154.22 32.2799 154.945 30.3844 155.781C29.7711 156.06 28.9906 156.395 28.3216 156.785C28.2659 156.785 28.2101 156.841 28.1544 156.896C27.9313 157.008 27.5968 157.175 27.4853 157.454C27.2623 157.788 27.3181 158.123 27.3738 158.346C27.5968 158.903 28.3216 159.238 28.8791 159.349C29.2694 159.461 29.6596 159.405 29.9384 159.349C30.2729 159.294 30.6074 159.238 30.8861 159.349C31.1091 159.461 31.2764 159.572 31.4994 159.74C31.8897 160.018 32.2799 160.297 32.8374 160.297C33.5064 160.297 34.1754 160.186 34.7887 160.074C35.0117 160.018 35.2905 159.963 35.5135 159.963C36.0152 159.907 36.517 159.795 36.963 159.684C38.0223 159.461 39.1373 159.238 40.1965 159.349C40.5868 159.405 40.977 159.572 41.0328 159.684C41.0328 159.684 41.0328 159.684 41.0328 159.74C40.8655 159.795 40.6983 159.851 40.531 159.907C40.4195 159.907 40.308 159.963 40.2523 159.963C40.085 159.963 39.9178 160.018 39.862 160.018C38.9143 160.297 37.4647 160.632 36.5727 161.524H37.5205V161.468Z" fill="#0F265C"/>
<path d="M103.362 139.558C102.86 128.408 102.414 116.477 102.247 106.107L100.909 104.825C100.798 104.713 100.798 104.546 100.909 104.435C100.965 104.379 101.021 104.323 101.132 104.379L101.968 85.2007C101.411 86.5945 100.463 89.0475 99.4039 92.1138C95.8916 103.877 90.9298 126.01 88.0865 146.75C88.0865 146.861 87.975 146.973 87.8077 146.973L53.2422 150.039L54.6917 161.468H94.8323C95.8916 159.071 98.3446 154.945 100.909 147.53C101.522 145.802 102.359 143.014 103.362 139.558Z" fill="white"/>
<path d="M88.4767 140.115C88.1422 142.234 87.8077 144.297 87.5289 146.415L84.8529 146.694L87.5847 146.471C87.8635 144.352 88.1422 142.234 88.4767 140.115Z" fill="white"/>
<path d="M103.362 139.558C102.359 142.959 101.522 145.802 100.909 147.53C98.2889 154.945 95.8917 159.071 94.8324 161.468H104.422C104.31 159.461 104.199 157.287 104.143 155.001C103.864 150.262 103.641 145.021 103.362 139.558Z" fill="#0F265C"/>
<path d="M98.7906 92.2253C100.407 87.4865 101.913 83.9185 101.968 83.7512C101.244 84.8105 100.129 87.821 98.7906 92.2253Z" fill="#0F265C"/>
<path d="M52.852 150.875L54.19 161.468H54.7475L53.298 150.039L87.8635 146.973C87.975 146.973 88.0865 146.861 88.1423 146.75C90.9856 126.01 95.9474 103.877 99.4597 92.1138C99.4039 92.3368 99.3482 92.504 99.2367 92.727C99.1809 92.8943 99.0137 92.95 98.9022 92.8943C98.7907 92.8385 98.7349 92.727 98.7349 92.6155C95.6129 103.264 91.4316 121.606 88.5325 140.171C88.198 142.29 87.9193 144.352 87.5848 146.471L84.853 146.694L52.9635 149.481C52.9077 149.481 52.7962 149.537 52.7962 149.593C52.7405 149.649 52.7405 149.704 52.7405 149.816L52.7962 150.373L52.852 150.875Z" fill="#0F265C"/>
<path d="M124.882 182.374C119.753 182.04 108.491 181.036 105.927 178.026C106.205 183.043 106.596 188.842 107.042 195.03C120.589 192.967 133.189 187.894 144.004 180.479C137.036 181.594 130.29 182.43 126.276 182.43C125.718 182.43 125.272 182.374 124.882 182.374Z" fill="#0F265C"/>
<path d="M145.008 179.754L145.064 179.698C140.381 180.479 135.753 181.092 131.962 181.538C135.865 181.204 140.437 180.59 145.008 179.754Z" fill="#0F265C"/>
<path d="M104.756 166.653H104.7C105.035 172.562 105.258 176.465 105.369 177.078C105.425 177.301 105.536 177.524 105.704 177.747C105.481 177.469 105.369 177.134 105.369 176.799C105.369 176.688 105.09 172.785 104.756 166.653Z" fill="white"/>
<path d="M105.313 166.653C105.648 172.785 105.927 176.688 105.927 176.799C106.094 179.141 113.509 181.148 124.882 181.817C126.666 181.929 129.119 181.817 131.962 181.594C135.809 181.148 140.437 180.535 145.064 179.754C150.472 175.963 155.378 171.559 159.838 166.653H105.313Z" fill="white"/>
<path d="M121.537 79.7372C121.537 79.7372 122.206 82.469 123.878 82.8593C125.105 83.138 126.554 82.246 128.283 80.1832C128.339 80.1275 128.394 80.0717 128.506 80.0717C127.447 78.5664 126.499 77.3957 126.22 77.2842C125.885 77.2842 123.823 78.3434 121.425 79.6257C121.481 79.6257 121.537 79.6815 121.537 79.7372Z" fill="white"/>
<path d="M124.269 83.4725C124.157 83.4725 123.99 83.4725 123.878 83.4167C123.934 83.4725 124.046 83.5282 124.046 83.5282C124.101 83.5282 124.157 83.4725 124.269 83.4725Z" fill="white"/>
<path d="M169.873 118.874C169.873 118.428 169.873 117.982 169.929 117.536C170.263 105.438 170.542 94.5669 170.709 88.6016C170.709 88.2113 170.709 87.8768 170.765 87.4866C170.821 85.3123 170.876 84.03 170.876 83.8628C169.761 82.4132 151.587 74.3851 148.632 73.3816C145.844 75.0541 131.015 81.9672 130.346 82.246C130.29 82.246 130.29 82.246 130.234 82.246C130.123 82.246 130.067 82.1902 130.011 82.1345C129.621 81.577 129.231 80.9637 128.84 80.4062C128.84 80.4062 128.84 80.4619 128.784 80.4619C127.614 81.8557 126.499 82.7477 125.495 83.138L127.837 119.488V119.543L118.303 151.712C118.303 151.767 118.248 151.823 118.192 151.823C118.136 151.823 118.08 151.767 118.08 151.712L114.289 118.373V118.317L122.931 82.8592C121.648 81.8557 121.147 79.9044 121.147 79.7929C120.366 80.2389 119.53 80.685 118.749 81.131C118.638 81.1867 118.471 81.1867 118.415 81.0752L115.237 77.3957C109.55 80.0159 103.195 83.138 102.637 84.03C102.637 84.0858 102.414 84.476 102.136 85.2008L101.299 104.379C101.355 104.379 101.411 104.379 101.467 104.435L102.916 105.773C102.972 105.829 103.028 105.884 103.028 105.996C103.306 123.836 104.421 146.638 105.202 161.468H164.354C166.026 159.349 167.587 157.119 169.037 154.834C169.148 144.464 169.538 131.251 169.873 118.874ZM135.029 98.1907L148.743 97.1872C148.911 97.1872 149.022 97.2987 149.022 97.466C149.022 97.6332 148.911 97.7447 148.743 97.7447L135.029 98.7482C134.861 98.7482 134.75 98.6367 134.75 98.4695C134.75 98.358 134.861 98.1907 135.029 98.1907ZM135.029 100.309L148.743 99.3057C148.911 99.3057 149.022 99.4172 149.022 99.5845C149.022 99.7517 148.911 99.8632 148.743 99.8632L135.029 100.867C134.861 100.867 134.75 100.755 134.75 100.588C134.75 100.477 134.861 100.309 135.029 100.309Z" fill="white"/>
<path d="M104.422 161.468C104.366 159.461 104.254 157.287 104.143 155.001C104.199 157.287 104.31 159.461 104.422 161.468Z" fill="white"/>
<path d="M148.855 73.2143C148.799 73.2701 148.688 73.3258 148.576 73.3816C151.531 74.3851 169.706 82.3574 170.821 83.8627L170.877 83.9185C170.877 84.0857 170.821 85.368 170.765 87.5423C170.765 87.8768 170.765 88.267 170.709 88.6573C170.542 93.8979 170.319 102.985 170.04 113.466C169.985 114.804 169.984 116.142 169.929 117.48C169.929 117.926 169.929 118.372 169.873 118.819C169.539 131.195 169.148 144.464 168.869 154.778C169.092 154.443 169.26 154.165 169.427 153.83C169.706 143.293 170.096 129.969 170.431 117.592C170.431 117.09 170.431 116.644 170.486 116.142C170.486 115.25 170.542 114.358 170.542 113.466C170.821 103.877 171.044 95.0686 171.211 89.6051C171.211 89.1591 171.211 88.7688 171.267 88.3785C171.323 85.7025 171.378 84.0857 171.378 83.9185C171.49 82.2459 151.698 74.0506 148.966 72.9355V72.9913C148.966 73.1028 148.911 73.1586 148.855 73.2143Z" fill="#0F265C"/>
<path d="M98.8465 92.8944C99.0138 92.9501 99.1253 92.8386 99.181 92.7271C99.2368 92.5041 99.2925 92.3369 99.404 92.1139C100.463 89.0476 101.411 86.5945 101.969 85.2008C102.247 84.476 102.47 84.03 102.47 84.03C103.028 83.138 109.383 80.0159 115.07 77.3956L114.903 77.1726C114.847 77.1169 114.847 77.0611 114.847 76.9496C114.847 76.8939 114.847 76.8939 114.903 76.8381C114.178 77.1726 113.62 77.3956 113.453 77.5071C113.342 77.5629 113.174 77.6186 113.063 77.6744C102.749 82.469 102.192 83.361 102.024 83.6955C101.913 83.8627 100.408 87.4308 98.8465 92.1696C98.7908 92.2811 98.7908 92.3926 98.735 92.5041V92.5599C98.6793 92.7271 98.735 92.8386 98.8465 92.8944Z" fill="#0F265C"/>
<path d="M124.882 182.374C125.272 182.374 125.774 182.43 126.276 182.43C130.29 182.43 137.036 181.65 144.005 180.479C144.339 180.256 144.674 180.033 145.008 179.754C140.437 180.535 135.809 181.204 131.962 181.538C129.175 181.817 126.722 181.873 124.882 181.761C113.509 181.036 106.038 179.085 105.927 176.744C105.927 176.632 105.648 172.73 105.313 166.597H104.756C105.09 172.73 105.369 176.632 105.369 176.744C105.369 177.078 105.537 177.413 105.704 177.691C105.76 177.803 105.815 177.859 105.927 177.97C108.491 181.036 119.697 182.04 124.882 182.374Z" fill="#0F265C"/>
<path d="M102.805 105.996C102.805 105.94 102.749 105.828 102.693 105.773L101.244 104.435C101.188 104.379 101.132 104.379 101.076 104.379C101.021 104.379 100.909 104.379 100.853 104.435C100.742 104.546 100.742 104.713 100.853 104.825L102.191 106.107C102.359 116.477 102.805 128.408 103.306 139.558C103.529 145.021 103.808 150.262 104.087 155.001C104.198 157.286 104.31 159.461 104.421 161.468H104.979C104.198 146.638 103.083 123.892 102.805 105.996Z" fill="#0F265C"/>
<path d="M123.488 71.263L115.572 77.0611L118.582 80.5734C120.088 79.7371 125.495 76.7266 126.332 76.7266C126.778 76.7266 128.116 78.3991 130.346 81.6884C132.241 80.7964 145.844 74.4408 148.353 72.9355L144.618 67.918L127.502 75.0541C127.391 75.1098 127.279 75.0541 127.224 74.9983L123.488 71.263Z" fill="white"/>
<path d="M114.903 76.8938C114.903 76.9496 114.903 76.9496 114.847 77.0053C114.847 77.0611 114.847 77.1726 114.903 77.2283L115.07 77.4513L118.248 81.1309C118.359 81.2424 118.471 81.2424 118.582 81.1866C119.363 80.7406 120.199 80.2946 120.98 79.8486C120.98 79.6814 121.035 79.5699 121.203 79.5141C121.314 79.5141 121.37 79.5141 121.426 79.5699C123.823 78.2876 125.886 77.2841 126.22 77.2283C126.499 77.3398 127.447 78.5663 128.506 80.0159C128.562 80.0159 128.617 80.0159 128.673 80.0716C128.785 80.1274 128.785 80.2946 128.729 80.4061C129.119 80.9636 129.509 81.5769 129.9 82.1344C129.955 82.1902 130.067 82.2459 130.123 82.2459C130.178 82.2459 130.178 82.2459 130.234 82.2459C130.903 81.9671 145.677 75.054 148.52 73.3815C148.632 73.3258 148.743 73.27 148.799 73.2143C148.855 73.1585 148.911 73.1028 148.911 73.047V72.9913C148.911 72.9355 148.911 72.8798 148.855 72.824L144.841 67.3604C144.785 67.2489 144.618 67.1932 144.506 67.2489L144.395 67.3047L143.837 67.5277L127.391 74.4408L124.325 71.3745L123.767 70.817L123.6 70.6497C123.488 70.5382 123.321 70.5382 123.265 70.6497L115.126 76.6151L114.903 76.7823C114.903 76.7823 114.903 76.8381 114.903 76.8938ZM127.502 75.054L144.562 67.9179L148.297 72.9355C145.789 74.4408 132.185 80.7964 130.29 81.6884C128.116 78.3991 126.722 76.7266 126.276 76.7266C125.44 76.7266 120.032 79.6814 118.526 80.5734L115.516 77.0611L123.433 71.263L127.168 74.9983C127.279 75.054 127.391 75.054 127.502 75.054Z" fill="#0F265C"/>
<path fill-rule="evenodd" clip-rule="evenodd" d="M125.161 83.3074L125.161 83.3053C125.272 83.3053 125.328 83.2495 125.328 83.1938L127.67 119.543V119.599L118.136 151.767C118.136 151.823 118.08 151.879 118.025 151.879C117.969 151.879 117.913 151.823 117.913 151.767L114.122 118.428V118.373L122.763 82.915C122.819 82.9708 122.875 83.0265 122.986 83.0823L114.401 118.428L118.136 151.098L118.176 150.963L114.457 118.428L123.042 83.0823C123.042 83.1381 123.098 83.1381 123.098 83.1381C123.488 83.5283 123.99 83.8071 123.99 83.8071H124.102C124.157 83.8071 124.659 83.6398 125.049 83.3611C125.087 83.3239 125.124 83.3115 125.161 83.3074Z" fill="#FFDD00"/>
<path d="M123.99 83.8069C124.046 83.8069 124.046 83.8069 124.102 83.8069C124.102 83.8069 124.603 83.6397 125.049 83.3609C124.826 83.4167 124.548 83.4724 124.325 83.4724H124.269C124.213 83.5282 124.102 83.5282 124.046 83.5282C123.99 83.5282 123.934 83.4724 123.879 83.4167C123.823 83.4167 123.767 83.4167 123.767 83.4167C123.544 83.3609 123.321 83.2494 123.154 83.1379C123.488 83.5282 123.99 83.8069 123.99 83.8069Z" fill="#ECECED"/>
<path d="M135.029 98.7483L148.743 97.7448C148.911 97.7448 149.022 97.5775 149.022 97.466C149.022 97.2988 148.855 97.1873 148.743 97.1873L135.029 98.1908C134.862 98.1908 134.75 98.358 134.75 98.4695C134.75 98.6368 134.917 98.7483 135.029 98.7483Z" fill="#0F265C"/>
<path d="M122.764 82.915C122.819 82.9708 122.931 83.0265 122.987 83.0823C122.987 83.0823 123.042 83.0823 123.042 83.138C123.265 83.2495 123.433 83.361 123.656 83.4168C123.711 83.4168 123.767 83.4168 123.767 83.4168C123.879 83.4168 124.046 83.4725 124.157 83.4725H124.213C124.436 83.4725 124.659 83.4168 124.938 83.361C124.994 83.361 125.049 83.361 125.105 83.3053C125.217 83.3053 125.272 83.2495 125.384 83.1938C126.387 82.8035 127.502 81.9115 128.673 80.5177L128.729 80.462C128.785 80.3505 128.729 80.239 128.673 80.1275C128.617 80.0717 128.562 80.0717 128.506 80.0717C128.45 80.0717 128.339 80.1275 128.283 80.1832C126.555 82.246 125.049 83.138 123.879 82.8593C122.206 82.469 121.537 79.7372 121.537 79.7372C121.537 79.6815 121.481 79.6257 121.426 79.6257C121.37 79.57 121.258 79.5142 121.202 79.57C121.035 79.6257 120.979 79.7372 120.979 79.9045C121.035 79.9602 121.481 81.9673 122.764 82.915Z" fill="#0F265C"/>
<path d="M135.029 100.867L148.743 99.8632C148.911 99.8632 149.022 99.6959 149.022 99.5844C149.022 99.4172 148.855 99.3057 148.743 99.3057L135.029 100.309C134.862 100.309 134.75 100.476 134.75 100.588C134.75 100.755 134.917 100.867 135.029 100.867Z" fill="#0F265C"/>
<path d="M106.986 34.7462C107.432 34.133 108.045 33.6312 108.547 33.241C108.324 33.2967 108.045 33.2967 107.822 33.3525C107.432 33.6312 107.153 34.0215 106.986 34.6347V34.6905V34.7462Z" fill="#FFDD00"/>
<path d="M106.596 33.5755C106.652 33.5197 106.652 33.464 106.707 33.4082C106.652 33.4082 106.596 33.4082 106.484 33.4082C106.484 33.464 106.54 33.5197 106.596 33.5755Z" fill="#FFDD00"/>
<path d="M110.498 32.9065C110.554 32.8508 110.666 32.795 110.666 32.7393C110.889 32.6835 111.112 32.6835 111.335 32.6278V32.572C111.167 32.572 111.056 32.572 110.889 32.6278C109.551 32.7393 108.547 32.8508 107.822 33.3525C108.101 33.3525 108.324 33.2968 108.547 33.241C108.045 33.6313 107.432 34.133 106.986 34.7463V34.6906V34.6348C106.819 35.1923 106.763 35.9171 106.819 36.8091C106.819 36.7533 106.875 36.6418 106.875 36.5303C107.544 34.4675 110.443 32.9623 110.498 32.9065Z" fill="#FFDD00"/>
<path d="M106.094 36.8647C106.094 36.8089 106.094 36.8089 106.094 36.7532C106.038 36.8089 106.038 36.8647 106.094 36.8647Z" fill="#FFDD00"/>
<path d="M106.596 33.5755C106.54 33.5197 106.54 33.464 106.484 33.4082C106.54 33.4082 106.596 33.4082 106.707 33.4082C107.098 32.8507 107.599 32.5162 108.213 32.2932C106.875 32.4605 105.871 32.6277 105.481 32.6835C105.258 32.7392 105.146 32.9065 105.146 33.1295C105.146 33.241 105.202 33.3525 105.313 33.4082C105.313 33.4082 106.038 33.91 106.206 34.6347C106.261 34.1887 106.429 33.8542 106.596 33.5755Z" fill="#FFDD00"/>
<path d="M116.297 36.5302C116.408 35.3594 116.297 34.5231 115.962 33.8541L115.906 33.7984C115.85 33.7426 115.851 33.6869 115.795 33.6311C115.349 33.0736 113.843 32.6276 112.896 32.5161C112.84 32.5161 112.784 32.5161 112.784 32.5161C112.45 32.5161 112.059 32.5161 111.669 32.5719C111.669 36.0842 111.669 38.3142 111.948 41.6035C112.505 41.5478 113.007 41.3805 113.453 41.2133C114.011 39.9867 115.237 38.2027 116.241 36.8089C116.241 36.6974 116.297 36.6417 116.297 36.5302ZM114.122 38.7045C114.122 38.7045 114.066 38.7045 114.122 38.7045C113.509 38.7045 113.119 37.8124 113.063 36.9204C112.951 36.0284 113.174 35.0249 113.788 34.9692C114.066 34.9692 114.289 35.1364 114.512 35.5267C114.68 35.8612 114.791 36.3072 114.847 36.7532C114.903 37.7009 114.68 38.6487 114.122 38.7045Z" fill="white"/>
<path d="M134.248 30.6206C134.248 30.6206 131.795 32.0701 131.851 34.0214C131.851 34.2444 131.907 34.3559 131.907 34.3559C131.907 34.4117 131.907 34.4674 131.851 34.5232C131.851 34.6904 131.907 34.9134 131.907 35.0807C132.074 36.6417 131.684 38.0355 130.903 39.039C130.067 40.0425 128.84 40.6558 127.279 40.823C127.001 40.823 126.778 40.8788 126.555 40.8788C123.823 40.8788 121.983 39.3177 121.035 36.1957C120.98 35.9727 120.924 35.7497 120.868 35.5824C120.868 35.5267 120.812 35.5267 120.812 35.4709C120.478 34.4674 119.474 34.4674 119.028 34.5232C118.75 34.5789 118.415 34.6347 118.192 34.7462V34.8019C118.136 34.8577 118.136 34.9134 118.081 34.9692L119.642 44.8928C119.697 44.8928 119.697 44.8928 119.753 44.8928C119.865 44.9486 119.92 45.0043 119.865 45.1158C119.865 45.2273 119.753 45.2831 119.697 45.2831H119.642C118.582 45.0043 113.453 43.4433 113.286 42.2168C113.286 42.161 113.286 42.1053 113.286 42.0495C112.951 42.161 112.561 42.2168 112.115 42.2725C112.227 43.6105 112.338 45.1158 112.561 46.9556C112.728 47.9034 112.896 48.7954 113.063 49.4086C113.453 50.6352 115.349 46.7326 119.53 46.3423C123.711 45.9521 128.004 48.0149 128.004 48.0149C134.416 47.8476 138.653 39.8752 138.876 33.7984C138.987 32.4046 138.82 31.0666 138.541 29.8401C137.259 30.0073 135.865 30.1746 134.527 30.3418C134.416 30.5091 134.36 30.5648 134.248 30.6206Z" fill="white"/>
<path d="M126.276 31.1225C125.83 31.1782 125.328 31.234 124.938 31.2897C124.882 31.3455 124.882 31.3455 124.826 31.3455C124.213 31.5127 122.429 32.126 121.76 32.795C121.314 33.5198 121.314 34.579 121.704 36.0286C122.652 39.0391 124.38 40.3771 127.168 40.0984C128.506 39.9869 129.621 39.4294 130.29 38.5931C130.959 37.7568 131.293 36.5303 131.126 35.1923C130.959 33.6313 130.68 32.6278 130.234 31.9587C129.955 31.6242 129.565 31.4012 129.342 31.234C128.562 30.8995 127.558 31.011 126.276 31.1225ZM126.945 36.8648C126.833 37.2551 126.61 37.5338 126.332 37.5338H126.276C125.997 37.5338 125.774 37.3666 125.607 36.9763C125.44 36.6418 125.328 36.1958 125.272 35.7498C125.161 34.8578 125.384 33.8543 125.997 33.7985C126.276 33.7428 126.499 33.9658 126.722 34.356C126.889 34.6905 127.001 35.1365 127.056 35.5826C127.112 36.0286 127.056 36.5303 126.945 36.8648Z" fill="white"/>
<path d="M115.293 32.0702C116.241 32.349 117.188 32.572 118.526 32.4605C119.809 32.349 120.812 31.903 121.704 31.5127C121.983 31.4012 122.206 31.2897 122.485 31.1782C123.488 30.6765 124.826 30.5092 126.164 30.3977C127.279 30.2862 128.339 30.1747 129.175 30.3977C129.175 30.3977 129.175 30.3977 129.231 30.3977C130.067 30.2862 134.192 29.673 138.207 29.2269C137.147 25.7704 134.861 22.9828 132.743 21.4218C131.572 20.5856 130.29 19.9166 128.952 19.4148C125.384 21.4776 122.318 22.9828 118.192 23.0944C116.742 23.1501 115.404 22.9828 114.289 22.6483C112.728 25.1014 111.836 28.1677 111.725 31.5685C111.725 31.68 111.725 31.7357 111.725 31.8472C112.115 31.7915 112.561 31.7915 112.951 31.7915C113.788 31.6242 114.512 31.8472 115.293 32.0702ZM123.544 28.0562L128.394 27.9447C128.617 27.9447 128.785 28.1119 128.785 28.3349C128.785 28.5579 128.617 28.7252 128.394 28.7252L123.544 28.8367C123.321 28.8367 123.154 28.6694 123.154 28.4464C123.154 28.2234 123.321 28.0562 123.544 28.0562ZM111.892 29.7287C111.836 29.5057 112.004 29.3384 112.227 29.2827L114.178 28.9482C114.401 28.8924 114.568 29.0597 114.624 29.2827C114.68 29.5057 114.512 29.673 114.289 29.7287L112.338 30.0632H112.282C112.059 30.0632 111.892 29.9517 111.892 29.7287Z" fill="white"/>
<path d="M144.06 53.0882C144.06 52.9767 144.06 52.921 144.06 52.8652C143.614 53.7572 143.113 54.5935 142.611 55.4298C143.113 54.8165 143.559 54.1475 143.949 53.4227C143.949 53.2555 144.005 53.1997 144.06 53.0882Z" fill="#0F265C"/>
<path d="M111.948 42.3841C112.059 44.0009 112.282 45.6176 112.505 47.0672C112.338 45.2274 112.171 43.7221 112.059 42.3841C112.004 42.3283 111.948 42.3283 111.948 42.3841Z" fill="#0F265C"/>
<path d="M111.725 31.7914C111.725 31.6798 111.725 31.6241 111.725 31.5126C111.78 28.056 112.728 25.0455 114.289 22.5925C114.178 22.5367 114.011 22.5367 113.899 22.481C112.338 24.9897 111.446 28.056 111.334 31.5683C111.334 31.6798 111.334 31.7914 111.334 31.8471C111.446 31.7914 111.557 31.7914 111.725 31.7914Z" fill="#0F265C"/>
<path d="M111.669 32.572C111.558 32.572 111.39 32.572 111.279 32.6278V32.6835C111.279 36.0286 111.279 38.2586 111.558 41.3807C111.502 38.2586 111.502 36.1958 111.502 36.1958C111.502 36.1958 111.613 38.7046 111.836 41.6594C111.892 41.6594 111.892 41.6594 111.948 41.6594C111.725 38.3144 111.669 36.0843 111.669 32.572Z" fill="#0F265C"/>
<path d="M114.457 36.8089C114.401 36.3629 114.289 35.9726 114.178 35.6939C114.066 35.4709 113.955 35.3594 113.843 35.3594C113.62 35.3594 113.397 36.0284 113.453 36.9204C113.565 37.8124 113.899 38.3699 114.122 38.3699C114.289 38.3142 114.512 37.7009 114.457 36.8089Z" fill="#0F265C"/>
<path d="M114.847 36.7533C114.791 36.3073 114.68 35.8613 114.512 35.5267C114.289 35.1365 114.066 34.9692 113.788 34.9692C113.23 35.025 113.007 36.0285 113.063 36.9205C113.174 37.8125 113.509 38.7045 114.066 38.7045H114.122C114.68 38.6488 114.903 37.701 114.847 36.7533ZM113.397 36.9205C113.286 36.0285 113.565 35.4152 113.788 35.3595C113.899 35.3595 114.011 35.471 114.122 35.694C114.289 35.9728 114.401 36.363 114.401 36.809C114.512 37.701 114.234 38.3143 114.011 38.3143C113.843 38.3143 113.509 37.8125 113.397 36.9205Z" fill="#0F265C"/>
<path d="M126.61 36.7533C126.722 36.4745 126.722 36.0285 126.666 35.6382C126.61 35.1922 126.499 34.802 126.387 34.5232C126.276 34.3002 126.164 34.1887 126.053 34.1887C125.83 34.1887 125.607 34.802 125.662 35.7497C125.718 36.1958 125.83 36.586 125.941 36.8648C126.053 37.0878 126.22 37.1993 126.276 37.1993C126.443 37.1435 126.554 36.9763 126.61 36.7533Z" fill="#0F265C"/>
<path d="M126.722 34.3558C126.499 33.9656 126.276 33.7983 125.997 33.7983C125.439 33.8541 125.216 34.8576 125.272 35.7496C125.328 36.1956 125.439 36.6416 125.607 36.9761C125.774 37.3106 126.053 37.5336 126.276 37.5336H126.331C126.61 37.5336 126.833 37.2549 126.945 36.8646C127.056 36.5301 127.112 36.0841 127.056 35.5824C127 35.0806 126.889 34.6904 126.722 34.3558ZM125.941 36.8089C125.774 36.5301 125.662 36.1399 125.662 35.6939C125.551 34.8019 125.83 34.1886 126.053 34.1328C126.164 34.1328 126.276 34.2443 126.387 34.4673C126.554 34.7461 126.666 35.1364 126.666 35.5824C126.722 36.0284 126.666 36.4186 126.61 36.6974C126.554 36.9204 126.443 37.0876 126.331 37.0876C126.22 37.1434 126.053 37.0319 125.941 36.8089Z" fill="#0F265C"/>
<path d="M114.234 29.7285C114.457 29.6728 114.568 29.5055 114.568 29.2825C114.512 29.0595 114.345 28.948 114.122 28.948L112.171 29.2825C111.948 29.3383 111.836 29.5055 111.836 29.7285C111.892 29.8958 112.004 30.063 112.227 30.063H112.282L114.234 29.7285Z" fill="#0F265C"/>
<path d="M123.544 28.8366C123.6 28.8366 123.6 28.8366 123.544 28.8366L128.394 28.7251C128.617 28.7251 128.785 28.5578 128.785 28.3348C128.785 28.1118 128.617 27.9446 128.394 27.9446L123.544 28.0561C123.321 28.0561 123.154 28.2233 123.154 28.4463C123.21 28.6693 123.377 28.8366 123.544 28.8366Z" fill="#0F265C"/>
<path d="M124.38 64.4615C127.391 64.4615 130.569 63.7368 133.468 62.8447C136.868 61.7855 140.213 58.9422 142.611 55.3741C143.168 54.5379 143.67 53.7016 144.06 52.8096C144.06 52.9211 144.06 52.9768 144.06 53.0326C144.228 54.8166 144.339 55.9874 144.339 55.9874C144.339 55.9874 144.395 55.9874 144.451 55.9874C144.841 55.9316 146.012 55.3184 147.405 48.3495C147.851 46.0637 148.242 43.6665 148.632 41.3249C147.294 42.6072 145.621 43.6665 143.559 44.5585H143.503C143.447 44.5585 143.391 44.5585 143.391 44.5027C143.336 44.447 143.336 44.3912 143.336 44.2797C144.116 42.1612 144.005 39.8754 143.837 37.7011C143.67 35.4153 143.503 33.241 144.395 31.234C144.395 31.1783 144.451 31.1783 144.451 31.1783C145.231 30.565 146.067 30.1747 146.848 30.0075C146.625 29.5057 146.346 29.1712 145.956 29.1155C145.343 29.004 142.221 29.3385 138.485 29.8402C138.764 31.0668 138.931 32.4048 138.82 33.7986C138.597 39.8754 134.36 47.8478 127.948 48.015C127.948 48.015 123.655 45.8965 119.474 46.3425C115.293 46.7328 113.342 50.6353 113.007 49.4088C112.84 48.7955 112.673 47.9035 112.505 46.9558C112.282 45.562 112.115 43.8895 111.948 42.2727C111.892 42.2727 111.892 42.2727 111.836 42.2727C111.781 42.2727 111.669 42.2727 111.613 42.2727C111.669 44.893 111.725 48.0708 111.892 51.3601C112.227 59.3882 115.795 62.4545 119.976 63.7368C121.202 64.127 122.54 64.2943 123.878 64.35C123.99 64.4615 124.213 64.4615 124.38 64.4615ZM116.742 49.5203C116.798 49.5203 119.753 49.7433 124.324 48.7955C124.436 48.7955 124.547 48.8513 124.547 48.9628C124.547 49.0743 124.492 49.1858 124.38 49.1858C121.202 49.8548 118.749 49.9663 117.523 49.9663C116.965 49.9663 116.687 49.9663 116.631 49.9663C116.519 49.9663 116.464 49.8548 116.464 49.7433C116.519 49.576 116.631 49.5203 116.742 49.5203Z" fill="#0F265C"/>
<path d="M111.502 36.1399C111.502 36.1399 111.502 38.2027 111.558 41.3247C111.558 41.4362 111.558 41.492 111.558 41.6035C111.613 41.6035 111.669 41.6035 111.725 41.6035C111.781 41.6035 111.781 41.6035 111.836 41.6035C111.613 38.6487 111.502 36.1399 111.502 36.1399Z" fill="#0F265C"/>
<path d="M114.234 22.5368C115.404 22.8713 116.687 23.0385 118.136 22.9828C122.262 22.8713 125.328 21.366 128.896 19.3032C130.234 19.805 131.516 20.474 132.687 21.3102C134.806 22.8713 137.091 25.6588 138.151 29.1154C141.774 28.6694 145.231 28.2791 145.956 28.3906C146.681 28.5021 147.182 29.1154 147.517 29.8959C148.353 29.8401 149.134 30.0074 149.858 30.3976C150.026 28.1676 150.137 25.9933 150.081 24.042C150.081 20.8085 148.688 17.6307 146.402 15.6237C145.621 14.8989 144.674 14.3414 143.67 14.0069C143.558 13.7281 143.391 13.4494 143.168 13.2264C141.942 11.8326 139.935 11.2193 138.374 10.3273C137.426 9.76982 136.422 9.26806 135.53 8.59905C134.694 7.93004 133.969 7.09378 133.245 6.25752C132.52 5.42126 131.907 4.47349 131.238 3.63723C129.9 1.90895 128.45 0.793935 126.22 0.292177C123.711 -0.321083 121.035 0.0134228 118.861 1.46295C115.627 3.63723 115.627 5.81151 115.627 5.81151C115.627 5.81151 112.226 5.254 109.495 8.4318C107.655 10.6061 106.874 14.2299 108.77 17.8537C109.885 20.0837 111.557 21.5333 113.843 22.3138C114.011 22.481 114.122 22.5368 114.234 22.5368Z" fill="#0F265C"/>
<path d="M116.687 49.9105C116.687 49.9105 117.021 49.9105 117.579 49.9105C118.805 49.9105 121.203 49.799 124.436 49.13C124.548 49.13 124.603 49.0185 124.603 48.907C124.603 48.7955 124.492 48.7397 124.38 48.7397C119.809 49.6875 116.798 49.4645 116.798 49.4645C116.687 49.4645 116.575 49.5203 116.575 49.6318C116.52 49.799 116.631 49.9105 116.687 49.9105Z" fill="white"/>
<path d="M130.29 38.5931C129.621 39.4294 128.506 39.9869 127.168 40.0984C124.436 40.3771 122.652 39.0391 121.704 36.0286C121.258 34.579 121.258 33.5198 121.76 32.795C121.202 33.4083 121.425 34.802 121.537 35.248C121.593 35.471 121.481 35.6383 121.258 35.6941C121.091 35.7498 120.924 35.694 120.868 35.5825C120.924 35.8055 120.979 35.9728 121.035 36.1958C121.983 39.3179 123.823 40.8789 126.555 40.8789C126.778 40.8789 127.056 40.8789 127.279 40.8231C128.84 40.6559 130.123 40.0426 130.903 39.0391C131.739 38.0356 132.074 36.6418 131.907 35.0808C131.907 34.8578 131.851 34.6905 131.851 34.5233C131.795 34.6348 131.684 34.6905 131.572 34.7463C131.572 34.7463 131.572 34.7463 131.516 34.7463C131.349 34.7463 131.182 34.6348 131.126 34.4118C131.126 34.3003 131.07 34.1888 131.07 34.0773C131.015 33.7428 130.903 33.1295 130.624 32.572C130.513 32.349 130.346 32.126 130.234 31.9587C130.68 32.6278 130.959 33.687 131.126 35.1923C131.238 36.5861 130.959 37.7568 130.29 38.5931Z" fill="#FFDD00"/>
<path d="M115.85 33.6311C115.906 33.6869 115.906 33.7426 115.962 33.7984C115.906 33.7426 115.85 33.6869 115.85 33.6311Z" fill="#FFDD00"/>
<path d="M116.352 35.8054C116.352 35.8054 116.408 34.6904 116.018 33.9099C116.352 34.5232 116.464 35.4152 116.352 36.586C116.352 36.6417 116.352 36.6975 116.352 36.809C116.52 36.586 116.631 36.4187 116.743 36.2515C116.464 36.1399 116.297 35.9727 116.352 35.8054Z" fill="#FFDD00"/>
<path d="M126.22 30.3419C124.826 30.4534 123.544 30.6764 122.541 31.1224C123.21 30.8436 123.879 30.6206 124.659 30.5649C124.826 30.5649 125.049 30.6764 125.049 30.8994C125.105 31.0666 124.994 31.1781 124.882 31.2896C125.328 31.2339 125.774 31.1781 126.22 31.1224C127.502 31.0109 128.562 30.8994 129.286 31.2339C129.175 31.1781 129.063 31.1224 129.063 31.1224C128.952 31.0666 128.896 30.9551 128.84 30.8436C128.785 30.6206 128.952 30.4534 129.119 30.3976C128.339 30.1189 127.335 30.2304 126.22 30.3419Z" fill="#FFDD00"/>
<path d="M111.836 42.3841C111.892 42.3841 111.892 42.3841 111.948 42.3841C112.004 42.3841 112.004 42.3841 112.059 42.3841C112.45 42.3283 112.84 42.2726 113.23 42.1611C113.23 41.9381 113.342 41.6036 113.565 41.2133C113.119 41.4363 112.617 41.5478 112.059 41.6036C112.004 41.6036 112.004 41.6036 111.948 41.6036C111.892 41.6036 111.892 41.6036 111.836 41.6036C111.781 41.6036 111.725 41.6036 111.669 41.6036C110.387 41.7151 109.272 41.3806 108.491 40.7116C107.655 39.9868 107.153 38.9275 106.986 37.5338C106.986 37.255 106.93 37.032 106.93 36.809C106.875 35.8612 106.93 35.1365 107.098 34.6347C107.265 34.0215 107.544 33.6312 107.934 33.3525C108.603 32.8507 109.662 32.7392 111 32.6277C111.167 32.6277 111.279 32.6277 111.446 32.5719C111.558 32.5719 111.725 32.5719 111.836 32.5162C112.227 32.5162 112.617 32.4604 112.951 32.4604C113.007 32.4604 113.063 32.4604 113.063 32.4604C113.063 32.4604 113.063 32.4604 113.007 32.4604C112.84 32.4047 112.673 32.2374 112.673 32.0702C112.673 31.9029 112.84 31.7357 113.007 31.6799C112.617 31.6799 112.227 31.6799 111.781 31.7357C111.669 31.7357 111.502 31.7357 111.39 31.7914C111.223 31.7914 111.056 31.8472 110.833 31.8472C109.885 31.9587 108.993 32.0144 108.268 32.2932C107.655 32.5162 107.098 32.8507 106.763 33.4082C106.707 33.464 106.707 33.5197 106.652 33.5755C106.484 33.8542 106.373 34.1887 106.261 34.579C106.15 35.1365 106.094 35.8612 106.15 36.7533C106.15 36.809 106.15 36.809 106.15 36.8648C106.15 37.0878 106.15 37.3665 106.206 37.5895C106.373 39.1505 106.986 40.4328 107.99 41.2691C108.826 41.9938 109.941 42.3841 111.223 42.3841C111.39 42.3841 111.502 42.3841 111.669 42.3841C111.669 42.3841 111.725 42.3841 111.836 42.3841Z" fill="#FFDD00"/>
<path d="M116.408 33.1294L116.464 33.1851C116.798 33.6311 116.91 34.1329 117.021 34.5789C117.523 34.1329 118.248 33.8541 118.917 33.7984C119.586 33.7426 120.143 33.8541 120.589 34.1329C120.589 33.6311 120.645 33.1294 120.924 32.6833C120.255 32.9064 119.53 33.1294 118.638 33.2409C117.746 33.2966 117.021 33.2409 116.408 33.1294Z" fill="#FFDD00"/>
<path d="M115.85 33.6312C115.906 33.6869 115.906 33.7427 115.962 33.7984L116.018 33.8542C116.408 34.6347 116.352 35.7497 116.352 35.7497C116.352 35.9727 116.464 36.1399 116.687 36.1399C117.244 35.3594 117.69 34.8019 117.802 34.6347C117.857 34.5232 117.969 34.5232 118.08 34.5789C118.136 34.6347 118.136 34.6904 118.136 34.8019C118.415 34.6904 118.694 34.5789 118.972 34.5789C119.363 34.5232 120.422 34.5232 120.756 35.5267C120.756 35.5824 120.812 35.5824 120.812 35.6382C120.924 35.7497 121.091 35.8054 121.202 35.7497C121.425 35.6939 121.537 35.4709 121.481 35.3037C121.37 34.8019 121.202 33.4082 121.704 32.8506C122.317 32.1816 124.101 31.5684 124.771 31.4011C124.826 31.4011 124.882 31.3454 124.882 31.3454C124.994 31.2339 125.049 31.1224 125.049 30.9551C124.994 30.7879 124.826 30.6206 124.659 30.6206C123.878 30.6764 123.154 30.8994 122.54 31.1781C122.262 31.2896 122.039 31.4011 121.76 31.5126C120.812 31.9029 119.864 32.3489 118.582 32.4604C117.188 32.5719 116.241 32.3489 115.349 32.0701C114.568 31.8471 113.843 31.6799 112.951 31.7356C112.784 31.7356 112.617 31.9029 112.617 32.1259C112.617 32.2931 112.728 32.4604 112.951 32.5161C112.951 32.5161 112.951 32.5161 113.007 32.5161C113.843 32.6276 115.404 33.0736 115.85 33.6312ZM120.868 32.6834C120.645 33.1294 120.533 33.6869 120.533 34.1329C120.087 33.8542 119.474 33.7427 118.861 33.7984C118.192 33.8542 117.523 34.1329 116.965 34.5789C116.854 34.1329 116.742 33.5754 116.408 33.1851L116.352 33.1294C116.965 33.2409 117.69 33.2966 118.582 33.2409C119.474 33.1294 120.199 32.9064 120.868 32.6834Z" fill="#FFDD00"/>
<path d="M130.457 31.1224C130.792 31.4012 131.126 31.7914 131.293 32.2374C131.349 32.2932 131.349 32.4047 131.405 32.4604C131.684 31.8472 132.13 31.3454 132.576 30.8994C132.018 31.0109 131.238 31.0667 130.457 31.1224Z" fill="#FFDD00"/>
<path d="M146.012 28.4462C145.287 28.3347 141.83 28.725 138.207 29.171C134.248 29.6728 130.067 30.2303 129.231 30.3418C129.231 30.3418 129.231 30.3418 129.175 30.3418C129.008 30.3975 128.84 30.5648 128.896 30.7878C128.896 30.8993 129.008 31.0108 129.119 31.0665C129.119 31.0665 129.231 31.1223 129.342 31.178C129.565 31.3453 129.9 31.5683 130.234 31.9028C130.401 32.0701 130.569 32.2931 130.624 32.5161C130.903 33.1293 131.015 33.6868 131.07 34.0213C131.07 34.1328 131.07 34.2443 131.126 34.3558C131.182 34.5231 131.293 34.6903 131.516 34.6903C131.516 34.6903 131.516 34.6903 131.572 34.6903C131.684 34.6903 131.795 34.5788 131.851 34.4673C131.907 34.4116 131.907 34.3558 131.907 34.3001C131.907 34.3001 131.907 34.1328 131.851 33.9656C131.795 32.0143 134.248 30.5648 134.248 30.5648C134.304 30.509 134.36 30.4533 134.416 30.3975C135.754 30.2303 137.147 30.063 138.43 29.8958C142.165 29.4498 145.343 29.1153 145.9 29.171C146.29 29.2268 146.569 29.5613 146.792 30.063C147.071 30.0073 147.294 29.9515 147.573 29.9515C147.238 29.171 146.792 28.5577 146.012 28.4462ZM131.349 32.1816C131.126 31.7355 130.792 31.3453 130.513 31.0665C131.293 31.0108 132.018 30.955 132.631 30.8435C132.185 31.2338 131.739 31.7913 131.461 32.4046C131.405 32.3488 131.349 32.2931 131.349 32.1816Z" fill="#FFDD00"/>
<path d="M144.674 31.5128C143.893 33.464 144.005 35.5268 144.172 37.7568C144.339 39.8196 144.451 41.9939 143.781 44.0567C147.907 42.2169 150.36 39.5409 151.475 35.6941C152.033 33.8543 151.364 31.903 149.914 30.8995C148.409 29.9517 146.458 30.1747 144.674 31.5128Z" fill="white"/>
<path d="M147.573 29.9516C147.294 29.9516 147.071 30.0074 146.792 30.0631C146.012 30.2304 145.175 30.6764 144.395 31.2339L144.339 31.2896C143.503 33.2967 143.614 35.471 143.782 37.7567C143.949 39.931 144.116 42.2168 143.28 44.3353C143.28 44.3911 143.28 44.5026 143.336 44.5583C143.391 44.6141 143.447 44.6141 143.447 44.6141H143.503C145.566 43.7221 147.238 42.6628 148.576 41.3805C150.137 39.8753 151.196 38.0355 151.81 35.8612C152.423 33.8542 151.698 31.7356 150.081 30.6206C149.97 30.5649 149.914 30.5091 149.803 30.4534C149.189 30.0631 148.353 29.8959 147.573 29.9516ZM151.475 35.7497C150.36 39.5965 147.907 42.2726 143.782 44.1123C144.451 42.0496 144.283 39.8753 144.172 37.8125C144.005 35.5825 143.893 33.5197 144.674 31.5684C146.513 30.1746 148.465 29.9516 149.914 30.9551C151.419 31.9586 152.033 33.9099 151.475 35.7497Z" fill="#0F265C"/>
<path d="M113.565 42.2168C113.62 42.9415 117.077 44.2238 119.53 44.9486L117.969 35.0249C116.129 37.5337 113.453 41.4363 113.565 42.2168Z" fill="white"/>
<path d="M119.474 45.3389C119.53 45.3389 119.53 45.3389 119.474 45.3389C119.586 45.3389 119.697 45.2832 119.697 45.2274C119.753 45.1159 119.642 45.0044 119.586 45.0044C119.586 45.0044 119.53 45.0044 119.474 45.0044C117.021 44.2797 113.565 42.9974 113.509 42.2726C113.453 41.4364 116.074 37.5896 117.913 35.0808C117.969 35.025 117.969 34.9693 118.025 34.9135V34.8578C118.025 34.802 118.025 34.6905 117.969 34.6348C117.858 34.579 117.746 34.579 117.69 34.6905C117.579 34.8578 117.133 35.471 116.575 36.1958C116.464 36.363 116.297 36.586 116.185 36.7533C115.182 38.1471 114.011 39.9868 113.397 41.1576C113.23 41.5479 113.119 41.8824 113.063 42.1054C113.063 42.1611 113.063 42.2169 113.063 42.2726C113.286 43.5549 118.471 45.0602 119.474 45.3389Z" fill="#0F265C"/>
<path d="M85.8005 195.699C86.0235 195.699 86.2466 195.755 86.4696 195.755V166.653H85.8005V195.699Z" fill="#0F265C"/>
<path d="M160.451 165.984C161.566 164.757 162.625 163.475 163.629 162.193H23.6942C24.6977 163.475 25.8127 164.757 26.872 165.984H160.451Z" fill="#0F265C"/>
<path d="M105.313 166.653H159.838C160.061 166.43 160.228 166.207 160.451 165.984H26.8718C27.0948 166.207 27.2621 166.43 27.4851 166.653H85.8005H86.4695H104.644H104.7H105.313Z" fill="#0F265C"/>
<path d="M163.629 162.137C163.796 161.914 163.963 161.691 164.186 161.468H105.035H104.477H104.421H94.8323H54.6917H54.1342H37.5204H36.6284H23.1367C23.304 161.691 23.4712 161.914 23.6942 162.137H163.629Z" fill="#0F265C"/>
<path d="M124.548 159.907C124.548 158.959 123.767 158.123 122.819 158.123H21.4085C20.4607 158.123 19.6802 158.904 19.6802 159.907C19.6802 160.855 20.4607 161.691 21.4085 161.691H122.764C123.767 161.691 124.548 160.911 124.548 159.907Z" fill="#F4F6F9"/>
<path d="M124.547 159.907H124.882C124.882 158.736 123.934 157.788 122.763 157.788H21.4083C20.2376 157.788 19.2898 158.736 19.2898 159.907C19.2898 161.078 20.2376 162.025 21.4083 162.025H122.763C123.934 162.025 124.882 161.078 124.882 159.907H124.547H124.213C124.213 160.687 123.6 161.301 122.819 161.301H21.4083C20.6278 161.301 20.0146 160.687 20.0146 159.907C20.0146 159.126 20.6278 158.513 21.4083 158.513H122.763C123.544 158.513 124.157 159.126 124.157 159.907H124.547Z" fill="#0F265C"/>
<path d="M19.2342 159.684C19.6244 160.799 20.8509 161.691 21.9659 161.691H97.4526C98.5676 161.691 99.1251 160.799 98.6791 159.684L79.9468 108.616C79.5566 107.501 78.3301 106.609 77.215 106.609H1.72839C0.613369 106.609 0.05586 107.501 0.501867 108.616L19.2342 159.684Z" fill="#F4F6F9"/>
<path d="M19.234 159.684L18.8995 159.795C19.4013 161.022 20.6836 162.026 21.9658 162.026H97.4525C97.9543 162.026 98.4003 161.858 98.679 161.58C99.0135 161.301 99.1808 160.855 99.1808 160.409L99.0135 159.572L80.2812 108.505C79.7795 107.278 78.4972 106.275 77.2149 106.275H1.72828C1.22652 106.275 0.780512 106.442 0.501758 106.721C0.167252 106.999 0 107.445 0 107.891L0.167253 108.728L18.8995 159.795L19.234 159.684L19.5686 159.572L0.836263 108.505L0.724761 107.947C0.724761 107.334 1.05927 106.999 1.72828 106.999H77.2149C78.107 106.999 79.2777 107.78 79.6122 108.783L98.3445 159.851L98.456 160.409C98.456 161.022 98.1215 161.356 97.4525 161.356H21.9101C21.0181 161.356 19.8473 160.576 19.5128 159.572L19.234 159.684Z" fill="#0F265C"/>
<path d="M44.7122 134.262L44.3777 134.373C45.1582 136.269 47.3325 137.774 49.3395 137.774C50.12 137.774 50.8448 137.551 51.2908 137.105C51.7925 136.659 52.0155 136.046 52.0155 135.321L51.8483 134.15C51.0678 132.255 48.9492 130.749 46.8864 130.749C46.1059 130.749 45.3812 130.972 44.9352 131.418C44.4334 131.864 44.1547 132.478 44.2104 133.202L44.4334 134.429L44.7122 134.262L45.0467 134.15L44.8237 133.147C44.8237 132.143 45.4927 131.418 46.8307 131.418C48.559 131.418 50.5102 132.756 51.1235 134.373L51.3465 135.321C51.3465 136.324 50.6775 137.049 49.3395 137.049C47.667 137.049 45.6599 135.711 45.0467 134.094L44.7122 134.262Z" fill="#0F265C"/>
<path d="M49.6739 129.244L49.3394 129.356C49.6739 130.192 50.6217 130.861 51.5695 130.861L52.5172 130.526L52.9075 129.634L52.796 129.077C52.4615 128.185 51.5137 127.572 50.6217 127.572L49.6739 127.906L49.2837 128.798L49.3952 129.356L49.6739 129.244L50.0085 129.133L49.9527 128.798C49.9527 128.519 50.12 128.352 50.566 128.296C51.1235 128.296 51.904 128.798 52.127 129.356L52.1827 129.69C52.1827 129.969 52.0155 130.136 51.5695 130.192C51.012 130.192 50.2315 129.69 50.0085 129.133L49.6739 129.244Z" fill="#0F265C"/>
<path d="M135.586 146.527C128.115 147.14 119.976 148.032 112.561 149.37C111.056 149.649 109.662 150.039 108.212 150.541C107.934 150.652 107.655 150.708 107.376 150.82C107.097 151.043 106.874 151.266 106.651 151.544C105.648 152.604 104.254 153.942 103.195 154.611C101.913 155.614 102.47 157.231 103.697 157.064C102.916 158.346 104.867 159.127 105.982 159.071C105.982 159.015 106.094 159.015 106.15 159.071H105.982C105.871 159.238 106.373 159.907 106.484 159.963C107.153 160.52 108.045 160.409 108.881 160.409C110.219 160.465 115.348 159.573 117.857 159.461C123.711 159.182 136.311 160.242 136.478 160.242" fill="white"/>
<path d="M135.586 146.583C128.115 147.196 119.976 148.088 112.561 149.426C111.056 149.705 109.662 150.095 108.212 150.597C107.933 150.708 107.655 150.764 107.376 150.875C107.097 151.098 106.874 151.321 106.651 151.6C105.648 152.659 104.254 153.997 103.195 154.666C101.912 155.67 102.47 157.287 103.696 157.119C102.916 158.402 104.867 159.182 105.982 159.126C105.982 159.071 106.094 159.071 106.149 159.126H105.982C105.871 159.294 106.372 159.963 106.484 160.018C107.153 160.576 108.045 160.464 108.881 160.464C110.219 160.52 115.348 159.628 117.857 159.517C123.711 159.238 136.311 160.297 136.478 160.297" stroke="#0F265C" stroke-miterlimit="10" stroke-linecap="round" stroke-linejoin="round"/>
<path d="M117.021 156.841C115.85 156.729 114.512 157.119 113.397 157.398C111.948 157.733 110.498 158.067 109.049 158.457C107.989 158.736 106.986 158.959 105.871 159.071L117.021 156.841ZM115.962 153.83C115.962 153.83 110.108 155.057 103.641 157.175L115.962 153.83ZM115.404 151.154C115.404 151.154 107.766 152.436 103.195 154.666L115.404 151.154ZM106.038 159.126H106.205C106.094 159.071 106.038 159.071 106.038 159.126Z" stroke="#0F265C" stroke-miterlimit="10" stroke-linecap="round" stroke-linejoin="round"/>
<path d="M161.12 143.628C160.172 137.105 155.545 116.867 153.872 102.93C151.587 83.9743 163.907 82.3018 171.099 83.9186C172.66 87.5981 178.849 109.118 181.19 124.115C184.535 145.858 187.323 160.353 174.5 162.026C174.5 162.026 160.339 162.862 149.301 162.137C138.262 161.468 123.711 159.963 123.711 159.963L122.206 147.419C131.014 145.858 161.12 143.628 161.12 143.628Z" fill="white"/>
<path d="M171.099 83.9185C172.66 87.598 178.849 109.118 181.19 124.115C184.535 145.858 187.323 160.353 174.5 162.025C174.5 162.025 160.339 162.862 149.301 162.137C138.262 161.468 123.711 159.963 123.711 159.963L122.206 147.419C131.014 145.858 161.12 143.628 161.12 143.628C160.172 137.105 155.545 116.867 153.872 102.93" stroke="#0F265C" stroke-miterlimit="10" stroke-linecap="round" stroke-linejoin="round"/>
<path d="M127.391 146.694L128.506 160.353" stroke="#0F265C" stroke-miterlimit="10" stroke-linecap="round" stroke-linejoin="round"/>
</svg>
